<svg xmlns="http://www.w3.org/2000/svg" width="99.188" height="99.188" viewBox="0 0 99.188 99.188">
  <defs>
    <style>
      .cls-1 {
        fill-rule: evenodd;
      }
    </style>
  </defs>
  <path id="adventure" class="cls-1" d="M418.4,285.768l1.544-7.717a2.3,2.3,0,0,1,4.517,0L426,285.768a8.017,8.017,0,0,0,7.843,6.432H439.8a19.2,19.2,0,0,0,0-38.4H404.6a19.2,19.2,0,0,0,0,38.4h5.954A8.019,8.019,0,0,0,418.4,285.768ZM388.6,273a16.02,16.02,0,0,1,16-16h35.2a16,16,0,0,1,0,32h-5.954a4.815,4.815,0,0,1-4.707-3.859l-1.544-7.717a5.5,5.5,0,0,0-10.792,0l-1.544,7.717A4.811,4.811,0,0,1,410.554,289H404.6A16.018,16.018,0,0,1,388.6,273Zm36.8-12.8H404.6A12.814,12.814,0,0,0,391.8,273H395a9.61,9.61,0,0,1,9.6-9.6h20.8v-3.2Zm3.2,0h3.2v3.2h-3.2v-3.2Zm6.4,0h3.2v3.2H435v-3.2Zm49.6,19.2v-9.6h-3.2V239.4H468.6v30.4h-3.2v9.6h3.2v3.2h-3.2v3.2h3.2V289h-3.2v3.2h3.2v3.2h-3.2v3.2h3.2v7.2a20,20,0,0,1-39.616,3.88A7.188,7.188,0,0,0,427.8,295.4H416.6a7.182,7.182,0,0,0-.539,14.345A32.788,32.788,0,0,0,481.4,305.8v-7.2h3.2v-3.2h-3.2v-3.2h3.2V289h-3.2v-3.2h3.2v-3.2h-3.2v-3.2h3.2Zm-12.8-36.8h6.4v27.2h-6.4V242.6Zm6.4,63.2a29.6,29.6,0,1,1-59.2,0v-2.4h-3.2v2.4c0,0.245.032,0.48,0.037,0.724a4,4,0,0,1,.763-7.924h11.2a4,4,0,0,1,.835,7.909c-0.008-.237-0.035-0.468-0.035-0.709v-2.4h-3.2v2.4a23.2,23.2,0,1,0,46.4,0v-7.2h6.4v7.2Zm0-10.4h-6.4v-3.2h6.4v3.2Zm0-6.4h-6.4v-3.2h6.4V289Zm0-6.4h-6.4v-3.2h6.4v3.2Zm-9.6-6.4V273h12.8v3.2H468.6Z" transform="translate(-385.406 -239.406)"/>
</svg>
