<svg xmlns="http://www.w3.org/2000/svg" width="99.812" height="99.812" viewBox="0 0 99.812 99.812">
  <defs>
    <style>
      .cls-1 {
        fill-rule: evenodd;
      }
    </style>
  </defs>
  <path id="heritage" class="cls-1" d="M229.992,417.376a1.665,1.665,0,0,0-1.664,1.664v9.984a1.665,1.665,0,0,0,1.664,1.664h6.656a1.664,1.664,0,0,0,1.664-1.664V419.04a1.665,1.665,0,0,0-1.664-1.664h-6.656Zm4.992,9.984h-3.328V420.7h3.328v6.656Zm-48.256,9.984a1.665,1.665,0,0,0,1.664-1.664V410.72h73.216v24.96a1.664,1.664,0,0,0,3.328,0V409.056a1.665,1.665,0,0,0-1.664-1.664H225v-9.984h8.32v3.329h-4.992a1.664,1.664,0,1,0,0,3.327h6.656a1.664,1.664,0,0,0,1.664-1.664v-6.656a1.664,1.664,0,0,0-1.664-1.664H223.336a1.665,1.665,0,0,0-1.664,1.664v11.648H186.728a1.665,1.665,0,0,0-1.664,1.664v26.623A1.665,1.665,0,0,0,186.728,437.344Zm59.9-19.968a1.665,1.665,0,0,0-1.664,1.664v9.984a1.665,1.665,0,0,0,1.664,1.664h6.656a1.665,1.665,0,0,0,1.664-1.664V419.04a1.665,1.665,0,0,0-1.664-1.664h-6.656Zm4.992,9.984H248.3V420.7h3.328v6.656Zm21.632,63.232H176.744a1.664,1.664,0,1,0,0,3.328h96.512A1.664,1.664,0,1,0,273.256,490.592Zm-36.608-9.984a1.664,1.664,0,0,0,1.664-1.664v-23.3a1.658,1.658,0,0,0-.488-1.176c-0.156-.156-3.918-3.816-12.824-3.816s-12.668,3.66-12.824,3.816a1.658,1.658,0,0,0-.488,1.176v23.3a1.664,1.664,0,1,0,3.328,0v-22.49c1.018-.7,3.656-2.122,8.32-2.408v16.578a1.664,1.664,0,0,0,0,3.328v4.992a1.664,1.664,0,0,0,3.328,0v-4.992a1.664,1.664,0,1,0,0-3.328V454.046c4.674,0.288,7.312,1.713,8.32,2.406v22.492A1.665,1.665,0,0,0,236.648,480.608ZM205.032,485.6a1.665,1.665,0,0,0,1.664,1.664H243.3a1.664,1.664,0,0,0,0-3.328H206.7A1.665,1.665,0,0,0,205.032,485.6ZM183.4,483.936a1.664,1.664,0,0,0,0,3.328h16.64a1.664,1.664,0,1,0,0-3.328h-1.664V444h53.248v39.936H249.96a1.664,1.664,0,0,0,0,3.328H266.6a1.664,1.664,0,0,0,0-3.328h-1.664V444H266.6a1.664,1.664,0,0,0,0-3.328H183.4a1.664,1.664,0,0,0,0,3.328h1.664v39.936H183.4ZM254.952,444h6.656v39.936h-6.656V444Zm-66.56,0h6.656v39.936h-6.656V444Zm8.32-26.624a1.665,1.665,0,0,0-1.664,1.664v9.984a1.665,1.665,0,0,0,1.664,1.664h6.656a1.665,1.665,0,0,0,1.664-1.664V419.04a1.665,1.665,0,0,0-1.664-1.664h-6.656Zm4.992,9.984h-3.328V420.7H201.7v6.656Zm11.648-9.984a1.665,1.665,0,0,0-1.664,1.664v9.984a1.665,1.665,0,0,0,1.664,1.664h6.656a1.664,1.664,0,0,0,1.664-1.664V419.04a1.665,1.665,0,0,0-1.664-1.664h-6.656Zm4.992,9.984h-3.328V420.7h3.328v6.656Z" transform="translate(-175.094 -394.094)"/>
</svg>
